<svg id="oci" xmlns="http://www.w3.org/2000/svg" viewBox="0 0 666.67 666.67"><defs><style>.cls-1{fill:#dd8505;}.cls-2{fill:#fff;}.cls-3{fill:#1d1d1b;}</style></defs><circle class="cls-1" cx="232.7" cy="261.56" r="58.73" transform="translate(-116.8 241.15) rotate(-45)"/><path class="cls-2" d="M247.73,229.22A163.32,163.32,0,0,0,197,215a58.73,58.73,0,1,0,94.38,43.89A163.45,163.45,0,0,0,247.73,229.22Z"/><path class="cls-3" d="M232.66,323.32a61.75,61.75,0,0,1-57.94-40.59c-8.84-24.2-2.33-52.74,21.39-70.89A166.38,166.38,0,0,1,249,226.5h0a166.37,166.37,0,0,1,45.3,31,61.78,61.78,0,0,1-61.64,65.82ZM197.85,218.07a55.73,55.73,0,1,0,90.55,42.11A161.21,161.21,0,0,0,197.85,218.07Z"/><circle class="cls-3" cx="213.7" cy="250.56" r="25"/><path class="cls-3" d="M185.14,208.08c40-5.9,91.89,18.69,117.16,57.15a3.4,3.4,0,0,1-4.94,4.53C266,245,240.41,233.1,200,223.53L184.67,220a6.08,6.08,0,0,1,.47-11.94Z"/><circle class="cls-1" cx="433.71" cy="288.47" r="58.73" transform="translate(-57.54 115.29) rotate(-14.21)"/><path class="cls-2" d="M448.75,256.13A163.38,163.38,0,0,0,398,241.86a58.73,58.73,0,1,0,94.38,43.89A163.39,163.39,0,0,0,448.75,256.13Z"/><path class="cls-3" d="M407.69,344.44c-40.83-19-49.68-75.77-10.56-105.69A166.4,166.4,0,0,1,450,253.41h0a166.47,166.47,0,0,1,45.29,31C497.63,333,449.12,363.7,407.69,344.44ZM398.87,245a55.1,55.1,0,0,0-15.69,20,55.73,55.73,0,0,0,101.06,47,55,55,0,0,0,5.18-24.88A161.35,161.35,0,0,0,398.87,245Z"/><circle class="cls-3" cx="414.71" cy="277.47" r="25"/><path class="cls-3" d="M386.15,235c40-5.89,91.87,18.65,117.17,57.15a3.4,3.4,0,0,1-4.95,4.53C466.86,271.74,441.22,260,401,250.44l-15.33-3.51a6.08,6.08,0,0,1,.47-11.94Z"/><path class="cls-3" d="M501.49,212.66c-29,15.39-82.19,19.38-109.82,6.42A11.27,11.27,0,0,1,398,197.72c4.05.57,4.69.82,6.88,1.11,24.61,4.48,86.48,5.81,94.7,6A4.14,4.14,0,0,1,501.49,212.66Z"/><path class="cls-3" d="M191.61,105.13c6.39-6,12.63-9,18-10.07,21.45-3.79,32.78,12.86,53.76,28.65,3,2.16,19.24,12.79,25.08,21.15l.92,1.32a12.55,12.55,0,0,1-3.1,17.49c-8.49,5.93-26,0-35.75-7.12-21.27-15.84-31.9-40.88-38.85-42.32a14.65,14.65,0,0,0-3.28-.79c-5-.56-12.46.88-12.21.84A5.34,5.34,0,0,1,191.61,105.13Z"/></svg>