<svg id="oci" xmlns="http://www.w3.org/2000/svg" viewBox="0 0 666.67 666.67"><defs><style>.cls-1{fill:#fff;}.cls-2{fill:#1d1d1b;}.cls-3{fill:#ff2e12;}</style></defs><circle class="cls-1" cx="433.71" cy="283.72" r="58.73" transform="translate(-53.58 107.24) rotate(-13.28)"/><path class="cls-2" d="M481.41,133.39c-16.21-11.49-27.27-14.66-38.88-16.13l-.46-.05a8.9,8.9,0,0,1,.46-17.71,48.36,48.36,0,0,1,19.06,2.6c18.14,6.22,32.84,22,38.79,36.26a4.07,4.07,0,0,1-6.11,4.88C491.88,141.53,489.77,139.38,481.41,133.39Z"/><path class="cls-2" d="M433.71,345.45a61.73,61.73,0,1,1,61.73-61.73A61.8,61.8,0,0,1,433.71,345.45Zm0-117.45a55.73,55.73,0,1,0,55.73,55.72A55.79,55.79,0,0,0,433.71,228Z"/><path class="cls-2" d="M427.21,197.63c27.83-2.13,59.85,18,73.14,42.89a2.39,2.39,0,0,1-3.69,2.91c-17.63-15.63-30.07-23.17-51.28-31.09-5.92-2.2-19.27-6.43-19.17-6.39a4.27,4.27,0,0,1,1-8.32Z"/><circle class="cls-1" cx="232.95" cy="283.72" r="58.73" transform="translate(-96.7 445.26) rotate(-76.72)"/><path class="cls-2" d="M166.29,138.36a63.51,63.51,0,0,1,9.3-15.12c12-14.72,30.09-25.11,48.55-23.74a8.9,8.9,0,0,1,.46,17.71A72.16,72.16,0,0,0,211,120a75.13,75.13,0,0,0-13,5.49c-12.33,6.55-23.48,16.28-25.06,17.41l-.5.35A4.06,4.06,0,0,1,166.29,138.36Z"/><path class="cls-2" d="M233,345.45a61.73,61.73,0,1,1,61.73-61.73A61.8,61.8,0,0,1,233,345.45ZM233,228a55.73,55.73,0,1,0,55.73,55.72A55.79,55.79,0,0,0,233,228Z"/><path class="cls-2" d="M240.39,206c-25.66,8.41-40.6,13.12-62.52,30.7-3.88,3.18-8,6.85-7.86,6.76a2.39,2.39,0,0,1-3.7-2.91c13.2-24.76,45.13-45,73.14-42.89a4.27,4.27,0,0,1,.94,8.34Z"/><path class="cls-2" d="M400.09,343.19c23.07-12.35,60.82-10.32,84,.59a2.39,2.39,0,0,1-1.21,4.55c-42.52-3.37-52.11.45-80.42,2.9a4.28,4.28,0,0,1-2.41-8Z"/><path class="cls-2" d="M264.16,351.67C239.6,349.55,227.5,346.06,194,348c-3.92.26-10.37.8-10.27.8a2.39,2.39,0,0,1-1.21-4.55c23.31-11,61-12.9,84-.59a4.28,4.28,0,0,1-2.42,8Z"/><path class="cls-3" d="M433.71,325.52c8.05-2.43,16.62-7.59,24.14-15.11,16.42-16.42,21.61-37.84,11.6-47.85-7.67-7.67-22.05-6.41-35.74,2-13.68-8.4-28.06-9.66-35.73-2-10,10-4.82,31.43,11.59,47.85C417.1,317.93,425.67,323.09,433.71,325.52Z"/><path class="cls-3" d="M233,325.52c8.05-2.43,16.62-7.59,24.14-15.11,16.42-16.42,21.61-37.84,11.6-47.85-7.67-7.67-22.05-6.41-35.74,2-13.68-8.4-28.06-9.66-35.73-2-10,10-4.82,31.43,11.59,47.85C216.33,317.93,224.91,323.09,233,325.52Z"/></svg>