<svg id="oci" xmlns="http://www.w3.org/2000/svg" viewBox="0 0 666.67 666.67"><defs><style>.cls-1{fill:#1d1d1b;}.cls-2{fill:#fff;}</style></defs><path class="cls-1" d="M164,189.51c4.66-32.57,32.77-77.86,59.49-92.54A11.27,11.27,0,0,1,237,114.69c-2.85,2.93-3.43,3.3-4.95,4.9-2.4,2.28-7.45,7.81-8.18,8.57-21.22,23.57-34.45,41.16-52.49,64.41A4.13,4.13,0,0,1,164,189.51Z"/><path class="cls-1" d="M495.31,192.57c-17.89-23.08-31.25-40.82-52.48-64.41-.65-.67-5.77-6.27-8.18-8.57-1.36-1.42-2.61-2.49-3.85-3.77l-1.09-1.13A11.27,11.27,0,0,1,443.22,97c27.2,15,54.93,60.66,59.48,92.54A4.13,4.13,0,0,1,495.31,192.57Z"/><circle class="cls-2" cx="433.03" cy="261.56" r="58.73" transform="translate(-48.51 106.49) rotate(-13.28)"/><path class="cls-1" d="M433,323.29a61.73,61.73,0,1,1,61.72-61.73A61.8,61.8,0,0,1,433,323.29Zm0-117.46a55.73,55.73,0,1,0,55.72,55.73A55.79,55.79,0,0,0,433,205.83Z"/><circle class="cls-1" cx="433.03" cy="261.56" r="26.91" transform="translate(-58.12 382.81) rotate(-45)"/><path class="cls-1" d="M504.67,263.47c-35-41.57-74.15-67.61-127-83.61a2,2,0,0,1,.47-4c52.63-2.57,112,37.36,130,85.56a2,2,0,0,1-3.44,2Z"/><circle class="cls-2" cx="232.27" cy="261.56" r="58.73" transform="translate(-75.66 427.52) rotate(-76.72)"/><path class="cls-1" d="M232.27,323.29A61.73,61.73,0,1,1,294,261.56,61.8,61.8,0,0,1,232.27,323.29Zm0-117.46A55.73,55.73,0,1,0,288,261.56,55.79,55.79,0,0,0,232.27,205.83Z"/><circle class="cls-1" cx="232.27" cy="261.56" r="26.91" transform="translate(-116.92 240.85) rotate(-45)"/><path class="cls-1" d="M157.18,261.47c18.21-48.71,77.89-88.1,130-85.56a2,2,0,0,1,.49,4,285,285,0,0,0-36.49,13.57,250.12,250.12,0,0,0-63.66,41.9,288.12,288.12,0,0,0-26.89,28.15,2,2,0,0,1-3.44-2Z"/></svg>