<svg id="oci" xmlns="http://www.w3.org/2000/svg" viewBox="0 0 666.67 666.67"><defs><style>.cls-1{fill:#415602;}.cls-2{fill:#fff;}.cls-3{fill:#1d1d1b;}</style></defs><path class="cls-1" d="M432.74,225.85a58.63,58.63,0,0,0-58.34,65.38C404.74,284.66,435,258,482.57,253.5A58.69,58.69,0,0,0,432.74,225.85Z"/><path class="cls-2" d="M482.57,253.5C435,258,404.74,284.66,374.4,291.23A58.72,58.72,0,1,0,482.57,253.5Z"/><path class="cls-3" d="M432.74,346.3a61.63,61.63,0,0,1-61.32-54.74l-.31-2.69,2.65-.58c11.72-2.53,23.81-8.34,36.6-14.48,26-12.5,44.94-20.75,73.77-23.47l1,1.57a61.71,61.71,0,0,1-52.37,94.39Zm-55-52.78A55.73,55.73,0,1,0,481,256.68C436.51,261.48,407.26,286,377.74,293.52Z"/><circle class="cls-3" cx="432.74" cy="284.57" r="26.91" transform="translate(-74.48 389.34) rotate(-45)"/><path class="cls-3" d="M488.85,250.73a4.38,4.38,0,0,1,.15,8.61c-29.73,6.22-43.74,14-70,28.17-15.12,8.12-33,16.06-50.18,12.95a10.1,10.1,0,0,1-1-19.62C404,270.2,439.14,242.19,488.85,250.73Z"/><path class="cls-3" d="M438.27,200.61A90.17,90.17,0,0,1,428,221.52c-13.13,20.34-34.36,37-58.68,39A8.89,8.89,0,0,1,366.61,243c17.21-4,33.68-12.05,54.1-34,4.52-4.73,10.66-12.29,10.58-12.18a4,4,0,0,1,7,3.78Z"/><path class="cls-1" d="M239,225.85a58.72,58.72,0,0,1,58.72,58.72,61.08,61.08,0,0,1-.38,6.66C267,284.66,236.68,258,189.13,253.5A58.69,58.69,0,0,1,239,225.85Z"/><path class="cls-2" d="M189.13,253.5C236.68,258,267,284.66,297.3,291.23A58.72,58.72,0,1,1,189.13,253.5Z"/><path class="cls-3" d="M239,346.3a61.71,61.71,0,0,1-52.37-94.39l1-1.57c51.57,4.87,79.55,31.28,110.36,38l2.65.58-.3,2.69A61.64,61.64,0,0,1,239,346.3Zm-48.24-89.62A55.72,55.72,0,1,0,294,293.52C264.26,286,235.3,261.49,190.72,256.68Z"/><circle class="cls-3" cx="238.96" cy="284.57" r="26.91" transform="translate(-92.9 451.76) rotate(-76.72)"/><path class="cls-3" d="M302.85,300.46c-12,2.17-24.39-1.1-35.56-5.8-16-6.68-32.12-18.31-55.33-27a192.88,192.88,0,0,0-29.26-8.28,4.38,4.38,0,0,1,.15-8.61c18.67-3.21,38.63-2.21,65.79,7.92,18.79,7.13,30.85,13.39,41.92,17.75,6.73,2.62,13.41,4.46,13.31,4.44a10.09,10.09,0,0,1-1,19.62Z"/><path class="cls-3" d="M286.75,236.75A89.84,89.84,0,0,0,305.09,243a8.89,8.89,0,0,1-2.74,17.52c-24.33-2-45.56-18.63-58.69-39a90.33,90.33,0,0,1-10.23-20.91,4,4,0,0,1,7-3.79C253.78,212.93,267.87,227.65,286.75,236.75Z"/></svg>