<svg id="oci" xmlns="http://www.w3.org/2000/svg" viewBox="0 0 666.67 666.67"><defs><style>.cls-1{fill:#dd8505;}.cls-2{fill:#1d1d1b;}.cls-3{fill:#fff;}</style></defs><circle class="cls-1" cx="200.9" cy="270.22" r="58.73" transform="translate(-132.23 221.2) rotate(-45)"/><path class="cls-2" d="M268.9,271c-22,1.33-55.74-1.06-101.46-1.92-11.31-.21-22.65-.34-34.12-.68a3.39,3.39,0,0,1-.83-6.66c38.59-10.81,100.88-14.12,137.88-2.61A6.08,6.08,0,0,1,268.9,271Z"/><path class="cls-2" d="M143,158.24c12.08-15.34,40.06-28.59,57.44-32.07a8.92,8.92,0,0,1,5.33,16.91c-8.84,3.86-31.79,11.35-43.56,15.79-8.59,3.21-14.5,5.74-14.4,5.7a4.11,4.11,0,0,1-4.81-6.33Z"/><path class="cls-3" d="M259.63,270.22a59.33,59.33,0,0,0-.34-6.28A583.4,583.4,0,0,0,142.5,264a60.55,60.55,0,0,0-.33,6.2,58.73,58.73,0,0,0,117.46,0Z"/><path class="cls-2" d="M200.9,332a61.78,61.78,0,0,1-61.38-68.25l.25-2.42A586.81,586.81,0,0,1,262,261.2l.26,2.42A61.79,61.79,0,0,1,200.9,332Zm-55.62-65.2a55.73,55.73,0,1,0,111.23-.07A582.19,582.19,0,0,0,145.28,266.75Z"/><path class="cls-2" d="M176,261.05a25,25,0,1,0,49.8,0Z"/><circle class="cls-1" cx="465.77" cy="270.22" r="58.73" transform="translate(53.89 617.09) rotate(-70.22)"/><path class="cls-2" d="M396.29,259.16c37.56-11.68,99.87-8,137.88,2.61a3.39,3.39,0,0,1-.81,6.66c-17.88.55-36.4.51-68,1.55-15.26.48-30.62,1.38-50.6,1.41-13.19,0-17.16-.37-17.06-.36a6.08,6.08,0,0,1-1.44-11.87Z"/><path class="cls-2" d="M518.69,164.49c-18.59-7.81-35.24-12.81-50.41-18.5-6.94-2.68-7.44-3-7.34-2.91a8.91,8.91,0,0,1,5.32-16.91c16.38,3.28,45,16.23,57.44,32.07A4.11,4.11,0,0,1,518.69,164.49Z"/><path class="cls-3" d="M407,270.22a59.33,59.33,0,0,1,.34-6.28,583.3,583.3,0,0,1,116.78.08,57.83,57.83,0,0,1,.33,6.2,58.73,58.73,0,1,1-117.45,0Z"/><path class="cls-2" d="M465.77,332a61.78,61.78,0,0,1-61.37-68.33l.25-2.42a586.76,586.76,0,0,1,122.24.08l.26,2.42A61.79,61.79,0,0,1,465.77,332Zm-55.61-65.27a55.72,55.72,0,1,0,111.22.07A582.07,582.07,0,0,0,410.16,266.68Z"/><path class="cls-2" d="M490.67,261.05a25,25,0,1,1-49.8,0Z"/></svg>