<svg id="oci" xmlns="http://www.w3.org/2000/svg" viewBox="0 0 666.67 666.67"><defs><style>.cls-1{fill:#b52010;}.cls-2{fill:#1d1d1b;}.cls-3{fill:#fff;}</style></defs><circle class="cls-1" cx="199.69" cy="285.39" r="58.73" transform="translate(-143.31 224.79) rotate(-45)"/><circle class="cls-1" cx="466.97" cy="285.39" r="58.73" transform="translate(-73.67 200.43) rotate(-22.5)"/><path class="cls-2" d="M143.9,164.56c12.71-15.26,41.29-30.82,61.24-30.76a8.86,8.86,0,0,1,1.91,17.5c-10.81,2.42-7.81,1.88-11,2.67-17.76,5.2-30.8,10.35-47.41,17A4.11,4.11,0,0,1,143.9,164.56Z"/><path class="cls-2" d="M518,171c-18.21-7.29-37.78-15.06-57.25-19.42l-1.12-.26a8.85,8.85,0,0,1,1.91-17.49c20.16-.06,48.66,15.67,61.24,30.76A4.11,4.11,0,0,1,518,171Z"/><path class="cls-2" d="M524.17,319.62c-13.69-13.29-36.78-24.71-54.38-30.62-19-6.26-42.55-10.14-62.41-7.22a3.36,3.36,0,0,1-1.54-6.53c20.48-6.34,47-3.59,67.49,2.66s45.21,19.1,57.18,36.5a4.12,4.12,0,0,1-6.34,5.21Z"/><path class="cls-2" d="M136.16,314.41c6.39-9.29,16.33-16.92,26-22.76,33.56-20.14,74.47-23.9,98.7-16.4a3.36,3.36,0,0,1-1.48,6.54,116,116,0,0,0-31.58.16c-21.89,2.81-40.85,9.54-59.87,19.77-17.67,9.58-25.58,18.07-25.48,18a4.11,4.11,0,0,1-6.26-5.28Z"/><path class="cls-2" d="M423.57,334.35c22.05-4.73,52.05,4.42,69.58,18.37a1.83,1.83,0,0,1-1.78,3.15c-20.38-7.54-30.88-9.93-50.36-12.78l-17.22-2.29a3.28,3.28,0,0,1-.22-6.45Z"/><path class="cls-2" d="M243.85,340.8c-25.49,3.72-37.16,3.77-67.54,15.07h0a1.83,1.83,0,0,1-1.78-3.15c17.18-13.68,47.13-23.19,69.58-18.37a3.28,3.28,0,0,1-.25,6.45Z"/><path class="cls-3" d="M122,466.25a36.18,36.18,0,0,0,14.68-9.18c10-10,13.13-23,7-29.1-4.67-4.66-13.41-3.9-21.73,1.21-8.33-5.11-17.07-5.87-21.73-1.21-6.09,6.09-2.93,19.12,7.05,29.1A36.11,36.11,0,0,0,122,466.25Z"/></svg>