<svg id="oci" xmlns="http://www.w3.org/2000/svg" viewBox="0 0 666.67 666.67"><defs><style>.cls-1{fill:#1d1d1b;}.cls-2{fill:#b52010;}.cls-3{fill:#fff;}</style></defs><path class="cls-1" d="M164.27,120.17c17.28-4.46,46.86-6.47,63.36-4.88a8.92,8.92,0,0,1,0,17.76c-16.72,1.62-46.27-.46-63.36-4.88a4.13,4.13,0,0,1,0-8Z"/><path class="cls-1" d="M502.39,128.17c-17.27,4.47-46.86,6.47-63.36,4.88a8.92,8.92,0,0,1,0-17.76c16.73-1.61,46.28.46,63.36,4.88a4.13,4.13,0,0,1,0,8Z"/><circle class="cls-2" cx="465.77" cy="257.34" r="58.73" transform="translate(66.02 608.57) rotate(-70.22)"/><path class="cls-3" d="M465.77,221.68a163.49,163.49,0,0,0-52,8.46,58.73,58.73,0,1,0,104.09,0A163.48,163.48,0,0,0,465.77,221.68Z"/><path class="cls-1" d="M465.77,319.07c-44.94,0-77-47.69-54.14-91.39a167.33,167.33,0,0,1,108.28,0C542.75,271.3,510.79,319.07,465.77,319.07ZM415.84,232.6a55,55,0,0,0-5.8,24.74,55.73,55.73,0,1,0,111.45,0,55.12,55.12,0,0,0-5.79-24.74A161.33,161.33,0,0,0,415.84,232.6Z"/><circle class="cls-1" cx="465.77" cy="250.34" r="25"/><path class="cls-1" d="M400.09,228.9c33.8-22.23,91.22-21.79,130.34,2.42a3.4,3.4,0,0,1-2.58,6.19c-38.9-9.27-67.09-9.22-107.77-.86l-15.38,3.28a6.08,6.08,0,0,1-4.61-11Z"/><circle class="cls-2" cx="200.9" cy="257.34" r="58.73" transform="translate(-123.13 217.43) rotate(-45)"/><path class="cls-3" d="M200.9,221.68a163.39,163.39,0,0,1,52,8.46,58.73,58.73,0,1,1-104.08,0A163.43,163.43,0,0,1,200.9,221.68Z"/><path class="cls-1" d="M200.9,319.07c-45.12,0-77-47.86-54.14-91.39a167.32,167.32,0,0,1,108.28,0C277.89,271.27,245.92,319.07,200.9,319.07ZM151,232.6a55,55,0,0,0-5.8,24.74,55.73,55.73,0,1,0,111.46,0,55,55,0,0,0-5.8-24.74A161.33,161.33,0,0,0,151,232.6Z"/><circle class="cls-1" cx="200.9" cy="250.34" r="25"/><path class="cls-1" d="M261.94,239.92c-11.62-2.48-19.92-4.37-30.52-6.09-21.43-3.39-39.32-4.54-61.44-2a265.63,265.63,0,0,0-31.16,5.68,3.4,3.4,0,0,1-2.58-6.19c32.3-20,79.27-24.72,115.13-10.23a87.71,87.71,0,0,1,15.21,7.81,6.08,6.08,0,0,1-4.64,11Z"/><circle class="cls-3" cx="209.62" cy="256.51" r="7.5"/><circle class="cls-3" cx="474.49" cy="256.51" r="7.5"/></svg>