<svg id="oci" xmlns="http://www.w3.org/2000/svg" viewBox="0 0 666.67 666.67"><defs><style>.cls-1{fill:#fff;}.cls-2{fill:#1d1d1b;}.cls-3{fill:#415602;}</style></defs><path class="cls-1" d="M524.07,235.7c-42.62,16.08-70,49-100.91,39.24,0,.52,0,1,0,1.56a58.73,58.73,0,1,0,101-40.8Z"/><path class="cls-2" d="M481.85,338.23c-35.09,0-62.81-29.48-61.7-62.88l.12-4.47,3.8,1.2c29.34,9.27,55.05-22.63,100.78-39.88l1.37,1.41a61.71,61.71,0,0,1-44.37,104.62Zm-55.68-59.39a55.73,55.73,0,1,0,97.09-39.61C483.43,254.89,456.68,285.33,426.17,278.84Z"/><path class="cls-3" d="M502.36,247.9a101.6,101.6,0,0,1,25-8.43,58.69,58.69,0,0,0-103.9,43.69c20.46-4.44,40.9-18,66.63-27.75A71,71,0,0,1,502.36,247.9Z"/><circle class="cls-2" cx="481.85" cy="276.5" r="26.91" transform="translate(-50.64 118.1) rotate(-13.28)"/><path class="cls-2" d="M403.54,260.15c10.36,3.7,20.49,4.17,31.32,3.83,22-1.32,49.72-26.28,86.07-37,16.82-5.11,34.91-6.68,51.88-3.84a4.36,4.36,0,0,1-.24,8.63c-44.44,4.89-67.49,26-96.68,43.91-12.49,7.68-26,14-40.74,13.81-14.22-.07-28.6-2.41-41.08-9.32a54.93,54.93,0,0,1-12-8.83,10,10,0,0,1,12-15.76A52.46,52.46,0,0,0,403.54,260.15Z"/><path class="cls-1" d="M142.6,235.7c42.62,16.08,70,49,100.9,39.24,0,.52,0,1,0,1.56A58.73,58.73,0,1,1,142.6,235.7Z"/><path class="cls-2" d="M184.82,338.23a61.72,61.72,0,0,1-44.38-104.62l1.38-1.41c45.89,17.3,71.37,49.17,100.78,39.88l3.8-1.2.12,4.47C247.61,308.16,220.46,338.23,184.82,338.23Zm-41.41-99a55.72,55.72,0,1,0,97.08,39.61C210,285.34,183.26,254.9,143.41,239.23Z"/><path class="cls-3" d="M164.31,247.9a101.53,101.53,0,0,0-25.06-8.43,58.71,58.71,0,0,1,104.29,37,61.08,61.08,0,0,1-.38,6.66c-20.46-4.44-40.91-18-66.63-27.75A71.73,71.73,0,0,0,164.31,247.9Z"/><circle class="cls-2" cx="184.82" cy="276.5" r="26.91" transform="translate(-126.75 392.85) rotate(-76.72)"/><path class="cls-2" d="M284.61,271.34a55.34,55.34,0,0,1-12,8.83c-12.49,6.91-26.86,9.25-41.08,9.32-37.22.49-64-39.08-114.08-53.33a142.92,142.92,0,0,0-23.29-4.38,4.36,4.36,0,0,1-.29-8.64c17-2.84,35.06-1.27,51.88,3.84,36.32,10.72,64.08,35.68,86.07,37,10.79.34,20.93-.12,31.32-3.83a56.13,56.13,0,0,0,9.43-4.57,10,10,0,0,1,12.05,15.76Z"/><path class="cls-2" d="M329.2,230.06c-1.72-9.26-.58-23.12.23-33.21.34-3.69.73-7.38,1.29-11.07a2.64,2.64,0,0,1,5.22,0c1.11,7.19,1.64,14.94,2.08,22.14.24,5.88.92,14.21-.56,22.14a4.2,4.2,0,0,1-8.26,0Z"/><path class="cls-2" d="M374.92,226.2A45.44,45.44,0,0,1,378.4,215a85.56,85.56,0,0,1,9-15.11,49.55,49.55,0,0,1,12.94-12.35,2.63,2.63,0,0,1,3.39,3.94C394.06,202.73,390.29,214,385.29,224c-1.93,3.86-2.71,5.06-2.65,5a4.18,4.18,0,0,1-7.72-2.78Z"/><path class="cls-2" d="M283.81,228.54c-5.76-9.63-9.63-24.14-20.86-37.21a2.63,2.63,0,0,1,3.3-4.05,45.59,45.59,0,0,1,9.16,7.78c7.15,8.21,14.6,20.2,16.25,30.91A4.19,4.19,0,0,1,283.81,228.54Z"/></svg>