<svg id="oci" xmlns="http://www.w3.org/2000/svg" viewBox="0 0 666.67 666.67"><defs><style>.cls-1{fill:#1d1d1b;}</style></defs><path class="cls-1" d="M434.55,456.21c-2.6-7.69-6.83-18.36-12.92-23.71-3.31-2.64-6.37-3.07-10.2-3-11.65.29-33.81,9.15-61.91,10.93a216.22,216.22,0,0,1-64.41-4.84c-21.32-4.76-32.26-9.29-40.08-3.06-6.09,5.35-10.32,16-12.91,23.71a9.88,9.88,0,1,1-17.89-8.07c.27-.45,6.14-10.7,9-14.44,3.14-4.29,6.58-8.63,11.13-12,24.35-17.41,40.9,8.89,98.95,9.23,55.79-.32,74-25,96.85-10.71,10.35,6.85,16.24,17.91,22.26,27.91a9.88,9.88,0,1,1-17.89,8.07Z"/><path class="cls-1" d="M372.25,473.21c-10.76-.87-22.27-2.58-38.92-2.59s-28.41,1.74-38.91,2.59a3.74,3.74,0,0,1-2.68-6.65c22.33-17.48,61.6-16.9,83.18,0A3.73,3.73,0,0,1,372.25,473.21Z"/></svg>