<svg id="oci" xmlns="http://www.w3.org/2000/svg" viewBox="0 0 666.67 666.67"><defs><style>.cls-1{fill:#1d1d1b;}.cls-2{fill:#dd8505;}</style></defs><path class="cls-1" d="M432,526.1a144.37,144.37,0,0,0-2.8-31.66c-2.4-12.28-5.74-22.92-7.72-31.54a2.84,2.84,0,0,1,5.16-2.19c11.72,18.36,18.17,46.26,10.15,66.39A2.48,2.48,0,0,1,432,526.1Z"/><path class="cls-2" d="M244.06,448.25C268,398,348.1,396.77,392,470.43c25.6,43,6.32,57.78-20.68,37.71-39.78-29.57-66.22-37.61-85.18-32.05C253.42,485.69,232,473.51,244.06,448.25Z"/><path class="cls-1" d="M240.49,446.55c29.27-56,116.44-56.63,161.87,20.76,7.6,13.28,15.66,32.31,10,46.61-3,6.71-7.12,10.73-15.66,12.61-20,2.35-29.61-12.12-54.27-28.3-13.1-8.66-29.89-17.87-45.54-18.3-4.56.07-5.27,0-12,1.57C246.14,490.31,229.36,470.74,240.49,446.55Zm17.57,28.22c8.73,1.28,17.4-.48,25.83-3.21,29.13-9.39,64.67,10.09,90,27.32,4.84,3.25,9.13,6.24,14.75,7.74,3.51,1,5.08.12,4.77.13-.77-.09,2.88-2.36-3.91-18.18-9.64-22.51-31.4-49.83-56.71-62.1-32.19-15.75-63.9-7-77.76,11.6C242.59,455.1,237.67,471.43,258.06,474.77Z"/></svg>