<svg id="oci" xmlns="http://www.w3.org/2000/svg" viewBox="0 0 666.67 666.67"><defs><style>.cls-1{fill:#1d1d1b;}.cls-2{fill:#fff;}</style></defs><path class="cls-1" d="M307.28,566.67c13.5-12,41.26-22.76,59.47-20.46a7.48,7.48,0,0,1-.38,14.88c-18,1.32-38.53,6.61-55.78,11.48A3.47,3.47,0,0,1,307.28,566.67Z"/><path class="cls-2" d="M413.13,508.46c0,11.28-16.33,20.88-59.28,20.88s-100.32-1.48-100.32-21c0-14.4,57.38-49.6,100.32-49.6S413.13,489,413.13,508.46Z"/><path class="cls-1" d="M415.87,508.46A18.33,18.33,0,0,1,409.79,521c-8.45,8-23.43,12.24-35,13.58-21,2.33-69.23-.27-95.41-6.12-11.19-2.42-27.83-7.24-29-18.59-2.93-17.19,61.78-60.49,104.05-60.11C396.3,450.59,417.82,481.21,415.87,508.46Zm-5.47,0c-1.58-16.19-13.46-29.88-28.23-35.74C337,453.41,249.93,495.56,257.35,510.94c4.59,10.23,35.28,12.12,46.49,12.49,14.37.54,53.79,0,69.84-1.06C382.38,521.71,411.14,521.06,410.4,508.46Z"/><path class="cls-1" d="M417.89,363.11c25.6,41.71,46,108,33.92,154.6a2.12,2.12,0,0,1-4.18-.5C446,473.93,443,443.16,428.77,401.73c-6.77-19.73-14.71-36.91-14.6-36.66A2.11,2.11,0,0,1,417.89,363.11Z"/><path class="cls-1" d="M252.49,365.09c-17.19,38.29-23.82,64.6-28.78,93.62A575.19,575.19,0,0,0,219,517.25a2.13,2.13,0,0,1-4.18.46c-12.11-46.75,8.4-113,33.92-154.6A2.11,2.11,0,0,1,252.49,365.09Z"/></svg>