<svg id="oci" xmlns="http://www.w3.org/2000/svg" viewBox="0 0 666.67 666.67"><defs><style>.cls-1{fill:#1d1d1b;}</style></defs><path class="cls-1" d="M409.13,439c-15.06,42.54-50.61,64.51-89.57,58-31.07-5.61-52.87-28-63-58l4.67-2.38c9.21,12.44,18.53,23.79,31.51,32.36a71.1,71.1,0,0,0,40.06,12.17c22.63.16,41.26-10.29,56.85-26.7a198.41,198.41,0,0,0,14.86-17.86Z"/><path class="cls-1" d="M403.71,444.4c-5.69-3.37-13.13-7.8-17.68-12a5,5,0,0,1,3-8.65c15.78-.82,35.22,11.4,38.86,26.18a4.32,4.32,0,0,1-6.18,4.86C418.23,453,415.89,451.57,403.71,444.4Z"/><path class="cls-1" d="M238.75,449.94c3.69-15,23.28-27,38.87-26.18a5,5,0,0,1,3.1,8.57,65.64,65.64,0,0,1-9,6.71c-9.89,6.35-26.89,15.81-26.79,15.76A4.33,4.33,0,0,1,238.75,449.94Z"/></svg>