<svg id="oci" xmlns="http://www.w3.org/2000/svg" viewBox="0 0 666.67 666.67"><defs><style>.cls-1{fill:#1d1d1b;}.cls-2{fill:#b52010;}.cls-3{fill:#fff;}</style></defs><path class="cls-1" d="M125,424.71c-2.1-21.9,15.37-47.8,34.64-58.69a4.76,4.76,0,0,1,6.51,6.43c-5.54,10.13-16.17,23.34-25.73,39.89-2.61,4.46-7.67,14.05-7.62,14A4.16,4.16,0,0,1,125,424.71Z"/><path class="cls-2" d="M331.38,429.74s103,.72,189.36-36c-16.39,34.56-85.9,131-189.36,131s-173-96.48-189.36-131C228.42,430.46,331.38,429.74,331.38,429.74Z"/><path class="cls-1" d="M533.76,426.13c-5.12-9.5-7.91-15.08-15.63-26.84-6.9-10.49-13.46-19.27-17.6-26.79A4.76,4.76,0,0,1,507,366c19.28,10.9,36.74,36.8,34.63,58.69A4.16,4.16,0,0,1,533.76,426.13Z"/><path class="cls-3" d="M331.38,429.74s-66.22.46-137-18.29a45.9,45.9,0,0,0,14.46,19.44c30.72,24.83,74.26,40.33,122.55,40.33s91.82-15.5,122.55-40.33a46.07,46.07,0,0,0,14.46-19.44C397.6,430.2,331.38,429.74,331.38,429.74Z"/><path class="cls-1" d="M519.8,390.06c-19.71,6.58-45,14.46-69.77,19.09-48.67,8.92-87.91,12.49-118.65,12.58-45.62-.11-110-8.9-142-17.72-25.69-6.5-31.72-8.94-46.44-13.84a3.57,3.57,0,0,0-4.22,5.15c.72,1.31,3.15,9.4,14.26,27.43,29,46.85,73.45,86.95,127.29,104.18,54.07,17,114.65,6.67,168-35.1,55.68-43.53,75.83-96.35,75.89-96.46A3.69,3.69,0,0,0,519.8,390.06ZM460.72,459.7c-83.2,73.49-175.65,73.37-258.74.06a309.38,309.38,0,0,1-50.47-57.66c20.68,9.12,33.79,13,55.34,19.06,82.47,20.36,152.58,21.94,234.16,3.68,27.62-6.57,46.15-12.09,70.23-22.63C501.84,416.06,482.87,440.18,460.72,459.7Z"/></svg>