<svg id="oci" xmlns="http://www.w3.org/2000/svg" viewBox="0 0 666.67 666.67"><defs><style>.cls-1{fill:#fff;}.cls-2{fill:#1d1d1b;}</style></defs><path class="cls-1" d="M251.71,478.05a29.71,29.71,0,0,0,12.07-7.55c8.21-8.21,10.8-18.92,5.8-23.92-3.84-3.84-11-3.21-17.87,1-6.84-4.2-14-4.83-17.87-1-5,5-2.41,15.71,5.8,23.92A29.71,29.71,0,0,0,251.71,478.05Z"/><path class="cls-1" d="M122,466.25a36.18,36.18,0,0,0,14.68-9.18c10-10,13.13-23,7-29.1-4.67-4.66-13.41-3.9-21.73,1.21-8.33-5.11-17.07-5.87-21.73-1.21-6.09,6.09-2.93,19.12,7.05,29.1A36.11,36.11,0,0,0,122,466.25Z"/><path class="cls-1" d="M178.47,535.22c7.33-2.2,15.13-6.91,22-13.76,15-14.94,19.68-34.45,10.56-43.56-7-7-20.08-5.85-32.54,1.8-12.47-7.65-25.56-8.79-32.55-1.8-9.11,9.11-4.38,28.62,10.56,43.56C163.33,528.31,171.14,533,178.47,535.22Z"/><path class="cls-2" d="M326.84,497.92c-14.65-6.2-30.71-18.78-31.61-34.58-.51-8,3.56-15.12,9.59-20.31a49.77,49.77,0,0,1,8.54-5.78v13.56c-6.37-3.5-12.27-8-15.6-14.53-6.94-13.42,1-27.4,13.14-36.88a71.14,71.14,0,0,1,15.94-9.26,3.53,3.53,0,0,1,3.11,6.32c-8.51,4.79-18.34,13-21.7,22.17-3.43,9.44,2.17,14.87,11.52,18.62a7.31,7.31,0,0,1,0,13.56c-9.29,3.72-15,9.13-11.52,18.61,3.34,9.17,13.1,17.32,21.65,22.16a3.52,3.52,0,0,1-3.06,6.34Z"/></svg>