<svg id="oci" xmlns="http://www.w3.org/2000/svg" viewBox="0 0 666.67 666.67"><defs><style>.cls-1{fill:#1d1d1b;}.cls-2{fill:#fff;}</style></defs><path class="cls-1" d="M491.49,452.27a84.91,84.91,0,0,0-15.17-43.45c-8.55-12.44-20.69-23.9-34.21-31.15a3.39,3.39,0,0,1,2.22-6.35c22,4.8,46.26,27.28,52.67,55.08a60.12,60.12,0,0,1,.35,26.35,3,3,0,0,1-5.86-.48Z"/><path class="cls-2" d="M233.26,479.28c-13.29-11.14-12.63-27.72,11-41,21.64-12.17,75.71-23.2,97-25.5s88.24-6.38,109.19,2.74c7.72,3.36,12.51,9,13.83,16.17.82,4.45.43,11.59-1.93,18.56-2.25,6.66-8.79,12.58-16.75,12.58-13.91,0-24.75-.4-38.23,1.92-29,4.57-60.54,13.67-93.21,33.56-18.2,11.08-34.47,7.1-47.78-.07C254.5,491.88,240.56,485.41,233.26,479.28Z"/><path class="cls-1" d="M231.33,481.58c-17.05-14.21-15.22-37.68,27-53.87,20.24-7.58,46.3-14,67.46-18,27.77-5.17,96.13-9.94,123.09-1.7,11.29,3.51,19.71,11.23,21.83,22.55,1.43,8.5-.68,19.47-3.73,25.31a25.61,25.61,0,0,1-12.53,11.66c-7,2.94-10.48,1.37-28.09,1.77-23.08.49-62.24,8.4-97,25.69-15.48,7.77-33.46,23.62-64.2,6.79C251.08,494,238.7,487.87,231.33,481.58Zm3.86-4.6c7.6,6,36.4,19.8,37.14,20.12,14.8,6.48,26.88,5.13,39.5-2.5,72.26-44.67,127.11-37.36,135-38.38,4-.6,7.85-3.57,9.58-9.29,3.74-12.78,1.46-22.43-11.42-26.4-21.51-6.64-78.24-4.34-100.69-2.51-23.61,1.84-77.44,12.29-98.53,23.7C223.85,453.78,224.21,467.55,235.19,477Z"/><path class="cls-1" d="M463.53,441.77c-70-7.93-162.12,8.14-223.19,40a6,6,0,0,0-2.3,2.12c2,1,9.36,5.18,11.56,6.46,57.93-32.16,145.67-50.88,213.68-46a1.3,1.3,0,0,0,.25-2.58Z"/><path class="cls-1" d="M263.35,430.88c9.4,25.31,26.89,60.91,32,68.86.8,1.39,2.9,4.37,2.83,4.27a2,2,0,0,1-2.91,2.6c-16-13.74-33.48-53.08-35.81-74.86a2,2,0,0,1,3.84-.87Z"/><path class="cls-1" d="M307.2,417.82c3.31,24.49,13.23,61,17.26,70.44.62,1.66,2,4.56,2,4.46a1.47,1.47,0,0,1-2.53,1.49l-1.52-2.1c-.51-.71-.88-1.45-1.33-2.18a86.34,86.34,0,0,1-4.4-9c-7-16.35-13.57-44.5-12.43-63a1.49,1.49,0,0,1,3-.08Z"/><path class="cls-1" d="M353.66,412c-.16,9.64.69,23.84,1.6,32.93,2.22,25,5.11,32.52,5.08,32.42a1.24,1.24,0,0,1-.81,1.55,1.23,1.23,0,0,1-1.44-.57c-6.32-11.25-8.71-36.08-8.52-49.78a87.1,87.1,0,0,1,1.65-16.85A1.23,1.23,0,0,1,353.66,412Z"/></svg>