<svg id="oci" xmlns="http://www.w3.org/2000/svg" viewBox="0 0 666.67 666.67"><defs><style>.cls-1{fill:#b52010;}.cls-2{fill:#ff2e12;}.cls-3{fill:#fff;}.cls-4{fill:#1d1d1b;}</style></defs><path class="cls-1" d="M510.45,541.46c0,54.58-79.3,27-177.12,27s-177.12,27.58-177.12-27,79.3-170.64,177.12-170.64S510.45,486.88,510.45,541.46Z"/><path class="cls-2" d="M442.58,542.81c8.9,12.47,14.08,28.73,14.83,45.78C394.18,549,334.26,550,334.26,550s-59.92-1-123.15,38.6c.75-17.05,5.93-33.31,14.83-45.78,27.16-38,65.64-61.8,108.32-61.8S415.42,504.76,442.58,542.81Z"/><path class="cls-3" d="M392.9,385c-34.65-4-59.57-14.18-59.57-14.18h0S308.41,381,273.76,385a187.38,187.38,0,0,0-31.08,18.87c25.11,7.93,56.54,12.65,90.65,12.65s65.54-4.72,90.66-12.65A187.05,187.05,0,0,0,392.9,385Z"/><path class="cls-3" d="M483.8,554.79c-37.49-15.62-90.62-25.38-149.54-25.38s-112,9.76-149.54,25.38c-8.72,3.63-14.84,8.05-18,12.81,5.15,1.73,10.21,3.76,15.22,5.94,80.47-.43,152.36-3.61,152.36-3.61s67.93,3,143.8,3.55c2.71-.73,5.41-1.54,8.08-2.44,1.42-.48,2.82-1,4.24-1.52l1-.4,1.26-.56a63.84,63.84,0,0,0,6.94-3.78C496.08,561.1,490.77,557.7,483.8,554.79Z"/><path class="cls-4" d="M514.84,541.46c.08,45.1-50.25,41.08-101,38.27-66.8-3.87-77.07-4.63-143-1.28-47.88,2.68-83.66,5.13-102.58-5.85-10.41-6-15.23-15.55-15.87-27.19-1.84-22.15,13.3-72.74,54.83-119.15,5.91-6.95,14.29-14.91,21-21.05C373.06,278.41,513.11,457.45,514.84,541.46Zm-8.78,0c-.37-38.6-40.36-92.09-70-117.29-6.4-5.81-15-12-22.11-16.78-40.93-26.85-86.25-35.48-131.24-16.19C241,409.08,212.05,436.89,186.41,474c-8.36,12.92-14.25,22.85-19.84,37.22-3.62,8.76-7.31,24.14-6.27,33.61,3.22,42.78,71.73,19.55,153,16.2C420.69,556.24,504.87,594.42,506.06,541.46Z"/></svg>